<?xml version="1.0" encoding="UTF-8" standalone="no"?>
<svg
   version="1.1"
   viewBox="0 0 371.59061 143.58496"
   width="371.59061"
   height="143.58496"
   id="svg9"
   sodipodi:docname="MiliFinalFinalFinalFinal.svg"
   inkscape:export-filename="C:\Users\esmio\MilyFinalFinalFinalFinal.svg"
   inkscape:export-xdpi="300"
   inkscape:export-ydpi="300"
   inkscape:version="1.4 (86a8ad7, 2024-10-11)"
   xmlns:inkscape="http://www.inkscape.org/namespaces/inkscape"
   xmlns:sodipodi="http://sodipodi.sourceforge.net/DTD/sodipodi-0.dtd"
   xmlns="http://www.w3.org/2000/svg"
   xmlns:svg="http://www.w3.org/2000/svg">
  <sodipodi:namedview
     id="namedview1"
     pagecolor="#ffffff"
     bordercolor="#000000"
     borderopacity="0.25"
     inkscape:showpageshadow="2"
     inkscape:pageopacity="0.0"
     inkscape:pagecheckerboard="0"
     inkscape:deskcolor="#d1d1d1"
     inkscape:zoom="1.4142136"
     inkscape:cx="109.60155"
     inkscape:cy="85.206367"
     inkscape:window-width="1366"
     inkscape:window-height="745"
     inkscape:window-x="-8"
     inkscape:window-y="-8"
     inkscape:window-maximized="1"
     inkscape:current-layer="svg9"
     showguides="true"
     inkscape:lockguides="false"
     showgrid="false">
    <sodipodi:guide
       position="-0.0625,72.084961"
       orientation="1,0"
       id="guide1"
       inkscape:locked="false" />
  </sodipodi:namedview>
  <defs
     id="defs9">
    <filter
       style="color-interpolation-filters:sRGB"
       id="filter4997"
       x="-0.18153461"
       y="-0.11900944"
       width="1.3011102"
       height="1.2442083">
      <feFlood
         result="flood"
         in="SourceGraphic"
         flood-opacity="0.498039"
         flood-color="rgb(0,0,0)"
         id="feFlood4996" />
      <feGaussianBlur
         result="blur"
         in="SourceGraphic"
         stdDeviation="1.400000"
         id="feGaussianBlur4996" />
      <feOffset
         result="offset"
         in="blur"
         dx="-2.279635"
         dy="0.151976"
         id="feOffset4996" />
      <feComposite
         result="comp1"
         operator="in"
         in="flood"
         in2="offset"
         id="feComposite4996" />
      <feComposite
         result="comp2"
         operator="over"
         in="SourceGraphic"
         in2="comp1"
         id="feComposite4997" />
    </filter>
    <filter
       style="color-interpolation-filters:sRGB"
       id="filter4999"
       x="-0.12361919"
       y="-0.072951053"
       width="1.1972694"
       height="1.1492018">
      <feFlood
         result="flood"
         in="SourceGraphic"
         flood-opacity="0.498039"
         flood-color="rgb(0,0,0)"
         id="feFlood4997" />
      <feGaussianBlur
         result="blur"
         in="SourceGraphic"
         stdDeviation="1.400000"
         id="feGaussianBlur4997" />
      <feOffset
         result="offset"
         in="blur"
         dx="-2.279635"
         dy="0.151976"
         id="feOffset4997" />
      <feComposite
         result="comp1"
         operator="in"
         in="flood"
         in2="offset"
         id="feComposite4998" />
      <feComposite
         result="comp2"
         operator="over"
         in="SourceGraphic"
         in2="comp1"
         id="feComposite4999" />
    </filter>
    <filter
       style="color-interpolation-filters:sRGB"
       id="filter5001"
       x="-0.083027377"
       y="-0.034224993"
       width="1.1324937"
       height="1.069998">
      <feFlood
         result="flood"
         in="SourceGraphic"
         flood-opacity="0.498039"
         flood-color="rgb(0,0,0)"
         id="feFlood4999" />
      <feGaussianBlur
         result="blur"
         in="SourceGraphic"
         stdDeviation="1.400000"
         id="feGaussianBlur4999" />
      <feOffset
         result="offset"
         in="blur"
         dx="-2.279635"
         dy="0.151976"
         id="feOffset4999" />
      <feComposite
         result="comp1"
         operator="in"
         in="flood"
         in2="offset"
         id="feComposite5000" />
      <feComposite
         result="comp2"
         operator="over"
         in="SourceGraphic"
         in2="comp1"
         id="feComposite5001" />
    </filter>
    <filter
       style="color-interpolation-filters:sRGB"
       id="filter5003"
       x="-0.29036088"
       y="-0.053074135"
       width="1.463353"
       height="1.1085489">
      <feFlood
         result="flood"
         in="SourceGraphic"
         flood-opacity="0.498039"
         flood-color="rgb(0,0,0)"
         id="feFlood5001" />
      <feGaussianBlur
         result="blur"
         in="SourceGraphic"
         stdDeviation="1.400000"
         id="feGaussianBlur5001" />
      <feOffset
         result="offset"
         in="blur"
         dx="-2.279635"
         dy="0.151976"
         id="feOffset5001" />
      <feComposite
         result="comp1"
         operator="in"
         in="flood"
         in2="offset"
         id="feComposite5002" />
      <feComposite
         result="comp2"
         operator="over"
         in="SourceGraphic"
         in2="comp1"
         id="feComposite5003" />
    </filter>
    <filter
       style="color-interpolation-filters:sRGB"
       id="filter5005"
       x="-0.058217916"
       y="-0.051045271"
       width="1.0929032"
       height="1.1043994">
      <feFlood
         result="flood"
         in="SourceGraphic"
         flood-opacity="0.498039"
         flood-color="rgb(0,0,0)"
         id="feFlood5003" />
      <feGaussianBlur
         result="blur"
         in="SourceGraphic"
         stdDeviation="1.400000"
         id="feGaussianBlur5003" />
      <feOffset
         result="offset"
         in="blur"
         dx="-2.279635"
         dy="0.151976"
         id="feOffset5003" />
      <feComposite
         result="comp1"
         operator="in"
         in="flood"
         in2="offset"
         id="feComposite5004" />
      <feComposite
         result="comp2"
         operator="over"
         in="SourceGraphic"
         in2="comp1"
         id="feComposite5005" />
    </filter>
    <filter
       style="color-interpolation-filters:sRGB"
       id="filter5007"
       x="-0.063898083"
       y="-0.039142441"
       width="1.1019675"
       height="1.0800553">
      <feFlood
         result="flood"
         in="SourceGraphic"
         flood-opacity="0.498039"
         flood-color="rgb(0,0,0)"
         id="feFlood5005" />
      <feGaussianBlur
         result="blur"
         in="SourceGraphic"
         stdDeviation="1.400000"
         id="feGaussianBlur5005" />
      <feOffset
         result="offset"
         in="blur"
         dx="-2.279635"
         dy="0.151976"
         id="feOffset5005" />
      <feComposite
         result="comp1"
         operator="in"
         in="flood"
         in2="offset"
         id="feComposite5006" />
      <feComposite
         result="comp2"
         operator="over"
         in="SourceGraphic"
         in2="comp1"
         id="feComposite5007" />
    </filter>
    <filter
       style="color-interpolation-filters:sRGB"
       id="filter5009"
       x="-0.04926926"
       y="-0.030275257"
       width="1.0786231"
       height="1.0619199">
      <feFlood
         result="flood"
         in="SourceGraphic"
         flood-opacity="0.498039"
         flood-color="rgb(0,0,0)"
         id="feFlood5007" />
      <feGaussianBlur
         result="blur"
         in="SourceGraphic"
         stdDeviation="1.400000"
         id="feGaussianBlur5007" />
      <feOffset
         result="offset"
         in="blur"
         dx="-2.279635"
         dy="0.151976"
         id="feOffset5007" />
      <feComposite
         result="comp1"
         operator="in"
         in="flood"
         in2="offset"
         id="feComposite5008" />
      <feComposite
         result="comp2"
         operator="over"
         in="SourceGraphic"
         in2="comp1"
         id="feComposite5009" />
    </filter>
    <filter
       style="color-interpolation-filters:sRGB"
       id="filter5011"
       x="-0.31261833"
       y="-0.035706695"
       width="1.4988711"
       height="1.0730284">
      <feFlood
         result="flood"
         in="SourceGraphic"
         flood-opacity="0.498039"
         flood-color="rgb(0,0,0)"
         id="feFlood5009" />
      <feGaussianBlur
         result="blur"
         in="SourceGraphic"
         stdDeviation="1.400000"
         id="feGaussianBlur5009" />
      <feOffset
         result="offset"
         in="blur"
         dx="-2.279635"
         dy="0.151976"
         id="feOffset5009" />
      <feComposite
         result="comp1"
         operator="in"
         in="flood"
         in2="offset"
         id="feComposite5010" />
      <feComposite
         result="comp2"
         operator="over"
         in="SourceGraphic"
         in2="comp1"
         id="feComposite5011" />
    </filter>
    <filter
       style="color-interpolation-filters:sRGB"
       id="filter5013"
       x="-0.26778894"
       y="-0.16422288"
       width="1.4273331"
       height="1.3358737">
      <feFlood
         result="flood"
         in="SourceGraphic"
         flood-opacity="0.498039"
         flood-color="rgb(0,0,0)"
         id="feFlood5011" />
      <feGaussianBlur
         result="blur"
         in="SourceGraphic"
         stdDeviation="1.400000"
         id="feGaussianBlur5011" />
      <feOffset
         result="offset"
         in="blur"
         dx="-2.279635"
         dy="0.151976"
         id="feOffset5011" />
      <feComposite
         result="comp1"
         operator="in"
         in="flood"
         in2="offset"
         id="feComposite5012" />
      <feComposite
         result="comp2"
         operator="over"
         in="SourceGraphic"
         in2="comp1"
         id="feComposite5013" />
    </filter>
  </defs>
  <g
     stroke-width="2"
     fill="none"
     stroke-linecap="butt"
     id="g3"
     style="filter:url(#filter4997)"
     transform="translate(-313.6934,-217.56725)" />
  <ellipse
     fill="#12664c"
     cx="0"
     cy="0"
     transform="rotate(54.6,104.99382,253.46175)"
     rx="10.53"
     ry="10.23"
     id="ellipse3"
     style="filter:url(#filter5013)" />
  <rect
     fill="#12664c"
     x="-9.0200005"
     y="-47.049999"
     transform="rotate(-0.1,33413.893,-161164.92)"
     width="18.040001"
     height="94.099998"
     rx="8.8100004"
     id="rect3"
     style="filter:url(#filter5011)" />
  <path
     fill="#12664c"
     d="m 85.266612,123.88275 c -16.735765,7.08225 -49.93232,8.48251 -71.65,-22.5 -5.8600005,-9.02 -8.1200005,-19.21 -7.9700005,-29.86 0.15,-10.64 2.7,-20.77 8.8200005,-29.62 C 20.070114,33.794011 28.51071,27.045138 38.315468,22.645912 52.984327,16.064249 70.706593,14.741806 86.549835,21.99308 129.72606,41.696517 133.26843,101.33446 85.266612,123.88275 Z M 113.3038,72.84125 c 0.2839,-27.110136 -22.080852,-49.323872 -49.953098,-49.6158 -27.872287,-0.291893 -50.697394,21.448624 -50.9813,48.5588 -0.283897,27.110137 22.080853,49.32387 49.9531,49.6158 27.872286,0.29189 50.697388,-21.448625 50.981298,-48.5588 z"
     id="path4"
     style="filter:url(#filter5009)"
     sodipodi:nodetypes="ccccsccscscs" />
  <path
     fill="#12664c"
     d="m 106.9949,72.73785 c -0.20683,23.703148 -20.131411,42.74595 -44.502798,42.5333 -24.37142,-0.21267 -43.960673,-19.60032 -43.7538,-43.3035 0.206834,-23.703149 20.131412,-42.745952 44.5028,-42.5333 24.371419,0.212675 43.960668,19.600321 43.753798,43.3035 z m -66.368298,-3.1951 2.44,5.36 -18.09,0.07 c -0.36993,0.0051 -0.658879,0.31695 -0.63,0.68 0.18,2.653333 0.643333,5.086667 1.39,7.3 4.4,12.96 13.1,21.44667 26.1,25.46 12.04,3.71 25.6,0.85 35.46,-6.85 0.526045,-0.41475 0.572793,-1.19544 0.1,-1.67 l -14.08,-14.08 c -1.531004,-2.222358 1.045999,-5.293078 3.39,-4.22 l 14.66,14.63 c 0.408506,0.406275 1.079011,0.369025 1.44,-0.08 13.159998,-16.17 10.879998,-38.93 -4.87,-52.25 -6.186667,-5.233333 -13.21,-8.226667 -21.07,-8.98 -0.603467,-0.05888 -1.126978,0.413675 -1.13,1.02 L 65.725352,51.484 c -0.718498,1.377968 -0.951223,1.670271 -1.644556,1.983604 -0.292487,0.134096 -5.800861,0.844834 -3.625844,-0.873883 L 60.592738,48.077546 60.156602,36.11275 c 0.0034,-0.794456 -0.705144,-1.40318 -1.49,-1.28 -16.473333,2.586667 -27.4,11.406667 -32.78,26.46 -0.786667,2.186667 -1.296667,4.52 -1.53,7 -0.05873,0.625582 0.431675,1.166879 1.06,1.17 z"
     id="path5"
     style="filter:url(#filter5007)"
     sodipodi:nodetypes="cscccccccccccccccccccccccccccc" />
  <path
     fill="#12664c"
     d="m 181.7466,49.43275 c 4.26,-2.87 8.66,-6.49 12.92,-7.89 10.73,-3.54 23.21,-0.6 30.34,8.4 5.79,7.31 6.05,16.11 5.29,25.42 -0.72,8.72 3.78,18.32 -1.45,26.6 a 2.82,3.02 85.2 0 1 -0.68,0.75 q -3.99,3.08 -8.98,1.86 c -3.25,-0.8 -4.97,-2.22 -6.13,-5.45 q -1.53,-4.22 -1.32,-9.94 0.13,-3.88 0.45,-15.76 c 0.16,-5.73 0.57,-10.55 -3.97,-13.61 -4.75,-3.2 -11.02,-1.78 -14.03,3.22 -1.3,2.14 -1.64,6.27 -1.54,9.29 q 0.31,8.91 -0.65,24.01 -0.41,6.33 -5.9,8.97 a 3.22,3.33 29.1 0 1 -0.96,0.29 q -7.88,1.01 -10.71,-6.87 c -0.89,-2.46 -0.57,-8.36 -0.37,-12.08 q 0.73,-13.39 -0.46,-19.19 c -1.05,-5.09 -5.59,-10.05 -11.36,-9.36 -5.83,0.69 -8.43,5.89 -8.82,11.35 q -0.14,2.09 0.36,17.75 c 0.17,5.23 0.02,12.73 -4.2,16.02 q -7.67,5.98 -13.37,-1.31 -0.88,-1.12 -1.5,-6.95 c -0.35,-3.24 0.38,-8.5 0.16,-12.68 -0.44,-8.38 -0.84,-18.17 1.73,-25.56 q 3.18,-9.14 11.37,-13.07 c 9.47,-4.55 23.99,-5.75 31.36,3.31 0.44,0.54 0.94,1.59 1.4,2.28 a 0.73,0.73 0 0 0 1.02,0.2 z"
     id="path6"
     style="filter:url(#filter5005)" />
  <path
     fill="#12664c"
     d="m 244.7066,103.22275 q -2.48,-3.19 -2.34,-7.52 c 0.48,-14.88 0.88,-25.23 -0.36,-38.5 -0.38,-4.1 0.68,-12.13 5.06,-14.13 q 7.55,-3.46 12.32,2.92 1.22,1.63 1.68,7.69 0.14,1.84 -0.27,8.16 c -0.55,8.62 0.5,18.45 0.56,25.83 q 0.05,7.58 -1.59,12.63 -0.53,1.64 -2.94,3.06 -5.66,3.32 -11.31,0.52 a 2.37,2.4 84.5 0 1 -0.81,-0.66 z"
     id="path7"
     style="filter:url(#filter5003)" />
  <path
     fill="#12664c"
     d="m 340.6666,87.01275 c 3.48,0.83 4.58,-7.41 4.84,-9.8 q 0.36,-3.23 1.32,-7.52 1.43,-6.42 2.84,-17.07 c 0.8,-6.05 4.03,-11.51 10.66,-10.63 12.45,1.64 6.95,19.1 5.02,26.27 q -1,3.72 -2.25,9.91 -3.69,18.29 -7.51,36.3 c -0.62,2.93 -1.69,5.5 -2.64,7.9 q -3.16,7.97 -11.02,13.39 -4.4,3.04 -10.32,3.88 c -6.06,0.85 -14.43,0.72 -19.05,-3 -3.9,-3.14 -5.95,-9.9 -3.32,-14.4 5.24,-8.97 14.79,3.01 21.82,-1.67 q 5.82,-3.86 7.3,-9.55 1.16,-4.44 -3.16,-6.47 c -3.34,-1.57 -9.04,-3.71 -12.39,-5.76 q -9.95,-6.07 -14.81,-17.51 -4.74,-11.15 -7.15,-24.36 c -1.1,-5.97 -1.16,-13.44 6.13,-14.81 3.79,-0.72 7.36,0.76 9.01,4.24 q 0.29,0.59 1.13,2.1 a 5.15,5.18 24.3 0 1 0.53,1.42 q 1.55,7.49 3.45,14.06 c 2.76,9.55 9.25,20.62 19.57,23.08 z"
     id="path8"
     style="filter:url(#filter5001)" />
  <path
     fill="#f06432"
     d="m 60.106602,51.08275 1.6875,1.04 c 0.299857,0.127727 1.415063,1.568812 2.090362,0.708153 0.471912,-0.455272 1.880771,-1.399584 1.848486,-1.451448 6.104352,-2.917103 14.700319,-1.910038 18.373652,6.023295 1.806667,3.886667 1.95976,9.55594 0.803478,12.731885 0,0 -0.482491,1.289787 -0.533478,1.268115 -4.274438,6.799213 -5.294819,7.258607 -7.67,10.19 -5.254123,6.470346 -6.749707,7.455822 -10.07,11.459996 -2.78,3.34 -5.09,2.86 -7.91,-0.49 -5.18,-6.133333 -15.062237,-16.694118 -15.66,-17.66 l -0.924633,-1.499644 -0.89625,-2.043996 c -0.261794,-0.746142 -0.03277,0.05211 -0.593537,-1.81636 -0.255992,-1.079967 -0.455519,-2.13121 -0.547422,-3.153731 -0.520798,-5.794491 1.593149,-10.666581 6.341842,-14.616269 3.72,-3.086667 8.273333,-3.316667 13.66,-0.69 z m 2.81,36.71 c 0.266667,0 0.45,-0.06333 0.55,-0.19 4.16,-5.1 7.576667,-9.103333 10.25,-12.01 3.34,-3.626667 5.233333,-6.43 5.68,-8.41 1.52,-6.73 -4.71,-16.6 -12.16,-9.41 -0.87,0.83 -2.83,3 -4.33,3 -1.51,0 -3.47,-2.16 -4.34,-2.99 -7.46,-7.19 -13.68,2.69 -12.15,9.42 0.446667,1.98 2.343333,4.78 5.69,8.4 2.673333,2.906667 6.093333,6.906667 10.26,12 0.106667,0.126667 0.29,0.19 0.55,0.19 z"
     id="path9"
     style="filter:url(#filter4999)"
     sodipodi:nodetypes="scccccccccccccsccsccccsccccsc" />
</svg>
